<mxfile host="app.diagrams.net" modified="2024-03-27T05:18:08.584Z" agent="Mozilla/5.0 (Windows NT 10.0; Win64; x64) AppleWebKit/537.36 (KHTML, like Gecko) Chrome/123.0.0.0 Safari/537.36" etag="yRbiaqe2XciIsx5Q0bMn" version="24.1.0" type="device">
  <diagram name="Page-1" id="PZTqaAViUj0GkJwfOsij">
    <mxGraphModel dx="1050" dy="565" grid="0" gridSize="10" guides="1" tooltips="1" connect="1" arrows="1" fold="1" page="1" pageScale="1" pageWidth="1100" pageHeight="850" math="0" shadow="0">
      <root>
        <mxCell id="0" />
        <mxCell id="1" parent="0" />
        <mxCell id="PENeMZDu9xXlpUDBOP-r-2" value="" style="rounded=0;whiteSpace=wrap;html=1;fillColor=#dae8fc;strokeColor=#6c8ebf;" parent="1" vertex="1">
          <mxGeometry x="40" y="130" width="290" height="300" as="geometry" />
        </mxCell>
        <mxCell id="PENeMZDu9xXlpUDBOP-r-4" value="&lt;font style=&quot;font-size: 24px;&quot;&gt;Login&lt;/font&gt;" style="text;html=1;align=center;verticalAlign=middle;whiteSpace=wrap;rounded=0;" parent="1" vertex="1">
          <mxGeometry x="85" y="170" width="190" height="30" as="geometry" />
        </mxCell>
        <mxCell id="PENeMZDu9xXlpUDBOP-r-5" value="&amp;nbsp;Username/Email adress" style="rounded=1;whiteSpace=wrap;html=1;align=left;" parent="1" vertex="1">
          <mxGeometry x="65" y="230" width="240" height="40" as="geometry" />
        </mxCell>
        <mxCell id="PENeMZDu9xXlpUDBOP-r-6" value="&amp;nbsp;Password" style="rounded=1;whiteSpace=wrap;html=1;align=left;" parent="1" vertex="1">
          <mxGeometry x="65" y="290" width="240" height="40" as="geometry" />
        </mxCell>
        <mxCell id="PENeMZDu9xXlpUDBOP-r-7" value="&lt;font style=&quot;font-size: 14px;&quot;&gt;Have no account ? &lt;b&gt;&lt;font color=&quot;#d41750&quot;&gt;&lt;u&gt;SignUp&lt;/u&gt;&lt;/font&gt;&lt;/b&gt;&lt;/font&gt;" style="text;html=1;align=center;verticalAlign=middle;whiteSpace=wrap;rounded=0;" parent="1" vertex="1">
          <mxGeometry x="65" y="350" width="230" height="30" as="geometry" />
        </mxCell>
        <mxCell id="PENeMZDu9xXlpUDBOP-r-8" value="" style="rounded=0;whiteSpace=wrap;html=1;fillColor=#dae8fc;strokeColor=#6c8ebf;" parent="1" vertex="1">
          <mxGeometry x="400" y="180" width="190" height="220" as="geometry" />
        </mxCell>
        <mxCell id="PENeMZDu9xXlpUDBOP-r-10" value="&lt;font style=&quot;font-size: 24px;&quot;&gt;Who are you?&lt;/font&gt;" style="text;html=1;align=center;verticalAlign=middle;whiteSpace=wrap;rounded=0;" parent="1" vertex="1">
          <mxGeometry x="400" y="210" width="190" height="30" as="geometry" />
        </mxCell>
        <mxCell id="PENeMZDu9xXlpUDBOP-r-12" value="&lt;ul&gt;&lt;li&gt;&lt;font style=&quot;font-size: 18px;&quot;&gt;&lt;u&gt;Admin&lt;/u&gt;&lt;/font&gt;&lt;/li&gt;&lt;li&gt;&lt;font size=&quot;3&quot;&gt;&lt;u&gt;Contestant&lt;/u&gt;&lt;/font&gt;&lt;/li&gt;&lt;/ul&gt;" style="text;html=1;align=left;verticalAlign=middle;whiteSpace=wrap;rounded=0;" parent="1" vertex="1">
          <mxGeometry x="410" y="260" width="200" height="85" as="geometry" />
        </mxCell>
        <mxCell id="PENeMZDu9xXlpUDBOP-r-14" value="" style="rounded=0;whiteSpace=wrap;html=1;fillColor=#dae8fc;strokeColor=#6c8ebf;" parent="1" vertex="1">
          <mxGeometry x="680" y="185" width="260" height="155" as="geometry" />
        </mxCell>
        <mxCell id="PENeMZDu9xXlpUDBOP-r-15" value="&lt;font style=&quot;font-size: 18px;&quot;&gt;Enter your pin code&lt;/font&gt;" style="text;html=1;align=center;verticalAlign=middle;whiteSpace=wrap;rounded=0;" parent="1" vertex="1">
          <mxGeometry x="685" y="200" width="250" height="30" as="geometry" />
        </mxCell>
        <mxCell id="PENeMZDu9xXlpUDBOP-r-16" value="&amp;nbsp;Pin code" style="rounded=1;whiteSpace=wrap;html=1;align=left;" parent="1" vertex="1">
          <mxGeometry x="700" y="240" width="220" height="30" as="geometry" />
        </mxCell>
        <mxCell id="PENeMZDu9xXlpUDBOP-r-17" value="" style="rounded=0;whiteSpace=wrap;html=1;fillColor=#dae8fc;strokeColor=#6c8ebf;" parent="1" vertex="1">
          <mxGeometry x="80" y="450" width="740" height="320" as="geometry" />
        </mxCell>
        <mxCell id="PENeMZDu9xXlpUDBOP-r-19" value="" style="endArrow=classic;html=1;rounded=0;entryX=-0.008;entryY=0.424;entryDx=0;entryDy=0;entryPerimeter=0;" parent="1" target="PENeMZDu9xXlpUDBOP-r-14" edge="1">
          <mxGeometry width="50" height="50" relative="1" as="geometry">
            <mxPoint x="510" y="290" as="sourcePoint" />
            <mxPoint x="560" y="240" as="targetPoint" />
          </mxGeometry>
        </mxCell>
        <mxCell id="PENeMZDu9xXlpUDBOP-r-21" value="" style="endArrow=classic;html=1;rounded=0;entryX=-0.019;entryY=0.441;entryDx=0;entryDy=0;entryPerimeter=0;" parent="1" target="PENeMZDu9xXlpUDBOP-r-8" edge="1">
          <mxGeometry width="50" height="50" relative="1" as="geometry">
            <mxPoint x="270" y="360" as="sourcePoint" />
            <mxPoint x="320" y="310" as="targetPoint" />
          </mxGeometry>
        </mxCell>
        <mxCell id="PENeMZDu9xXlpUDBOP-r-25" value="&lt;font style=&quot;font-size: 24px;&quot;&gt;Register&lt;/font&gt;" style="text;html=1;align=center;verticalAlign=middle;whiteSpace=wrap;rounded=0;" parent="1" vertex="1">
          <mxGeometry x="340" y="470" width="190" height="30" as="geometry" />
        </mxCell>
        <mxCell id="PENeMZDu9xXlpUDBOP-r-26" value="&lt;font style=&quot;font-size: 11px;&quot;&gt;&amp;nbsp;Once registered, you can&#39;t change it !&lt;/font&gt;" style="rounded=1;whiteSpace=wrap;html=1;align=left;" parent="1" vertex="1">
          <mxGeometry x="270" y="540" width="510" height="25" as="geometry" />
        </mxCell>
        <mxCell id="PENeMZDu9xXlpUDBOP-r-27" value="&lt;font style=&quot;font-size: 18px;&quot;&gt;&lt;b&gt;Username&lt;/b&gt;&lt;/font&gt;" style="text;html=1;align=left;verticalAlign=middle;whiteSpace=wrap;rounded=0;" parent="1" vertex="1">
          <mxGeometry x="100" y="535" width="130" height="30" as="geometry" />
        </mxCell>
        <mxCell id="PENeMZDu9xXlpUDBOP-r-29" value="&lt;font style=&quot;font-size: 18px;&quot;&gt;&lt;b&gt;Password&amp;nbsp; &amp;nbsp; &amp;nbsp; &amp;nbsp; &amp;nbsp; &amp;nbsp;&amp;nbsp;&lt;/b&gt;&lt;/font&gt;" style="text;html=1;align=left;verticalAlign=middle;whiteSpace=wrap;rounded=0;" parent="1" vertex="1">
          <mxGeometry x="100" y="565" width="160" height="30" as="geometry" />
        </mxCell>
        <mxCell id="PENeMZDu9xXlpUDBOP-r-31" value="&lt;font style=&quot;font-size: 18px;&quot;&gt;&lt;b&gt;Repeat Password&lt;/b&gt;&lt;/font&gt;" style="text;html=1;align=left;verticalAlign=middle;whiteSpace=wrap;rounded=0;" parent="1" vertex="1">
          <mxGeometry x="100" y="595" width="260" height="30" as="geometry" />
        </mxCell>
        <mxCell id="PENeMZDu9xXlpUDBOP-r-33" value="&lt;span style=&quot;font-size: 11px;&quot;&gt;&amp;nbsp;Above 6 character&lt;/span&gt;" style="rounded=1;whiteSpace=wrap;html=1;align=left;" parent="1" vertex="1">
          <mxGeometry x="270" y="570" width="510" height="25" as="geometry" />
        </mxCell>
        <mxCell id="PENeMZDu9xXlpUDBOP-r-35" value="&lt;span style=&quot;font-size: 11px;&quot;&gt;&amp;nbsp;Repeat above password&lt;/span&gt;" style="rounded=1;whiteSpace=wrap;html=1;align=left;" parent="1" vertex="1">
          <mxGeometry x="270" y="600" width="510" height="25" as="geometry" />
        </mxCell>
        <mxCell id="PENeMZDu9xXlpUDBOP-r-36" value="&lt;font style=&quot;font-size: 18px;&quot;&gt;&lt;b&gt;Email&lt;/b&gt;&lt;/font&gt;" style="text;html=1;align=left;verticalAlign=middle;whiteSpace=wrap;rounded=0;" parent="1" vertex="1">
          <mxGeometry x="100" y="625" width="260" height="30" as="geometry" />
        </mxCell>
        <mxCell id="PENeMZDu9xXlpUDBOP-r-37" value="&amp;nbsp;Give a valid email address" style="rounded=1;whiteSpace=wrap;html=1;align=left;" parent="1" vertex="1">
          <mxGeometry x="270" y="630" width="510" height="25" as="geometry" />
        </mxCell>
        <mxCell id="PENeMZDu9xXlpUDBOP-r-39" value="&lt;b&gt;Register&lt;/b&gt;" style="rounded=0;whiteSpace=wrap;html=1;fillColor=#008a00;strokeColor=#005700;fontColor=#ffffff;" parent="1" vertex="1">
          <mxGeometry x="685" y="700" width="100" height="40" as="geometry" />
        </mxCell>
        <mxCell id="PENeMZDu9xXlpUDBOP-r-40" value="&lt;b&gt;Cancel&lt;/b&gt;" style="rounded=0;whiteSpace=wrap;html=1;fillColor=#e51400;strokeColor=#B20000;fontColor=#ffffff;" parent="1" vertex="1">
          <mxGeometry x="570" y="700" width="100" height="40" as="geometry" />
        </mxCell>
        <mxCell id="PENeMZDu9xXlpUDBOP-r-41" value="" style="endArrow=classic;html=1;rounded=0;entryX=0.782;entryY=-0.016;entryDx=0;entryDy=0;entryPerimeter=0;" parent="1" target="PENeMZDu9xXlpUDBOP-r-17" edge="1">
          <mxGeometry width="50" height="50" relative="1" as="geometry">
            <mxPoint x="540" y="320" as="sourcePoint" />
            <mxPoint x="680" y="440" as="targetPoint" />
          </mxGeometry>
        </mxCell>
        <mxCell id="PENeMZDu9xXlpUDBOP-r-44" style="edgeStyle=orthogonalEdgeStyle;rounded=0;orthogonalLoop=1;jettySize=auto;html=1;entryX=0.5;entryY=0;entryDx=0;entryDy=0;" parent="1" source="PENeMZDu9xXlpUDBOP-r-42" target="PENeMZDu9xXlpUDBOP-r-2" edge="1">
          <mxGeometry relative="1" as="geometry">
            <Array as="points">
              <mxPoint x="970" y="100" />
              <mxPoint x="185" y="100" />
            </Array>
          </mxGeometry>
        </mxCell>
        <mxCell id="PENeMZDu9xXlpUDBOP-r-42" value="&lt;font style=&quot;font-size: 14px;&quot;&gt;Sent verification link to the user email address. By clicking this link, login interface will be shown.&lt;/font&gt;" style="rounded=0;whiteSpace=wrap;html=1;fillColor=#dae8fc;strokeColor=#6c8ebf;" parent="1" vertex="1">
          <mxGeometry x="850" y="450" width="160" height="100" as="geometry" />
        </mxCell>
        <mxCell id="PENeMZDu9xXlpUDBOP-r-43" value="" style="endArrow=classic;html=1;rounded=0;entryX=0.25;entryY=1;entryDx=0;entryDy=0;" parent="1" target="PENeMZDu9xXlpUDBOP-r-42" edge="1">
          <mxGeometry width="50" height="50" relative="1" as="geometry">
            <mxPoint x="790" y="720" as="sourcePoint" />
            <mxPoint x="840" y="670" as="targetPoint" />
          </mxGeometry>
        </mxCell>
        <mxCell id="PENeMZDu9xXlpUDBOP-r-49" style="edgeStyle=orthogonalEdgeStyle;rounded=0;orthogonalLoop=1;jettySize=auto;html=1;entryX=0.75;entryY=0;entryDx=0;entryDy=0;" parent="1" source="PENeMZDu9xXlpUDBOP-r-45" target="PENeMZDu9xXlpUDBOP-r-8" edge="1">
          <mxGeometry relative="1" as="geometry">
            <Array as="points">
              <mxPoint x="960" y="310" />
              <mxPoint x="960" y="130" />
              <mxPoint x="543" y="130" />
            </Array>
          </mxGeometry>
        </mxCell>
        <mxCell id="PENeMZDu9xXlpUDBOP-r-50" value="&lt;font style=&quot;font-size: 14px;&quot;&gt;&lt;b&gt;Invalid&lt;/b&gt;&lt;/font&gt;" style="edgeLabel;html=1;align=center;verticalAlign=middle;resizable=0;points=[];" parent="PENeMZDu9xXlpUDBOP-r-49" vertex="1" connectable="0">
          <mxGeometry x="0.1754" y="-3" relative="1" as="geometry">
            <mxPoint x="2" y="3" as="offset" />
          </mxGeometry>
        </mxCell>
        <mxCell id="PENeMZDu9xXlpUDBOP-r-45" value="&lt;b&gt;Submit&lt;/b&gt;" style="rounded=0;whiteSpace=wrap;html=1;fillColor=#008a00;strokeColor=#005700;fontColor=#ffffff;" parent="1" vertex="1">
          <mxGeometry x="770" y="295" width="80" height="30" as="geometry" />
        </mxCell>
        <mxCell id="PENeMZDu9xXlpUDBOP-r-47" style="edgeStyle=orthogonalEdgeStyle;rounded=0;orthogonalLoop=1;jettySize=auto;html=1;entryX=0.899;entryY=-0.011;entryDx=0;entryDy=0;entryPerimeter=0;" parent="1" source="PENeMZDu9xXlpUDBOP-r-45" target="PENeMZDu9xXlpUDBOP-r-17" edge="1">
          <mxGeometry relative="1" as="geometry">
            <Array as="points">
              <mxPoint x="810" y="400" />
              <mxPoint x="745" y="400" />
            </Array>
          </mxGeometry>
        </mxCell>
        <mxCell id="PENeMZDu9xXlpUDBOP-r-48" value="&lt;font style=&quot;font-size: 14px;&quot;&gt;&lt;b&gt;Valid&lt;/b&gt;&lt;/font&gt;" style="edgeLabel;html=1;align=center;verticalAlign=middle;resizable=0;points=[];" parent="PENeMZDu9xXlpUDBOP-r-47" vertex="1" connectable="0">
          <mxGeometry x="-0.4865" y="2" relative="1" as="geometry">
            <mxPoint as="offset" />
          </mxGeometry>
        </mxCell>
        <mxCell id="kVpHWlWD4WsvUIXXiUbk-1" value="&lt;b&gt;&lt;u&gt;Forget Password&lt;/u&gt;&lt;/b&gt;" style="text;html=1;align=center;verticalAlign=middle;whiteSpace=wrap;rounded=0;" vertex="1" parent="1">
          <mxGeometry x="127.5" y="375" width="105" height="30" as="geometry" />
        </mxCell>
        <mxCell id="kVpHWlWD4WsvUIXXiUbk-2" value="&lt;b&gt;Login&lt;/b&gt;" style="rounded=0;whiteSpace=wrap;html=1;fillColor=#008a00;fontColor=#ffffff;strokeColor=#005700;" vertex="1" parent="1">
          <mxGeometry x="264" y="399" width="59" height="26" as="geometry" />
        </mxCell>
        <mxCell id="kVpHWlWD4WsvUIXXiUbk-3" value="&lt;b&gt;Cancel&lt;/b&gt;" style="rounded=0;whiteSpace=wrap;html=1;fillColor=#e51400;fontColor=#ffffff;strokeColor=#B20000;" vertex="1" parent="1">
          <mxGeometry x="45" y="399" width="59" height="26" as="geometry" />
        </mxCell>
      </root>
    </mxGraphModel>
  </diagram>
</mxfile>
